<?xml version="1.0" encoding="utf-8" standalone="no"?>
<!DOCTYPE svg PUBLIC "-//W3C//DTD SVG 1.1//EN"
  "http://www.w3.org/Graphics/SVG/1.1/DTD/svg11.dtd">
<!-- Created with matplotlib (https://matplotlib.org/) -->
<svg height="483.178375pt" version="1.1" viewBox="0 0 604.395625 483.178375" width="604.395625pt" xmlns="http://www.w3.org/2000/svg" xmlns:xlink="http://www.w3.org/1999/xlink">
 <defs>
  <style type="text/css">
*{stroke-linecap:butt;stroke-linejoin:round;}
  </style>
 </defs>
 <g id="figure_1">
  <g id="patch_1">
   <path d="M 0 483.178375 
L 604.395625 483.178375 
L 604.395625 0 
L 0 0 
z
" style="fill:#ffffff;"/>
  </g>
  <g id="axes_1">
   <g id="patch_2">
    <path d="M 39.195625 458.079 
L 597.195625 458.079 
L 597.195625 23.199 
L 39.195625 23.199 
z
" style="fill:#ffffff;"/>
   </g>
   <g id="patch_3">
    <path clip-path="url(#p2ea1f9492d)" d="M 64.559261 240.639 
L 66.708722 240.639 
L 66.708722 438.311727 
L 64.559261 438.311727 
z
" style="fill:#1f77b4;"/>
   </g>
   <g id="patch_4">
    <path clip-path="url(#p2ea1f9492d)" d="M 67.246087 240.639 
L 69.395548 240.639 
L 69.395548 405.902909 
L 67.246087 405.902909 
z
" style="fill:#1f77b4;"/>
   </g>
   <g id="patch_5">
    <path clip-path="url(#p2ea1f9492d)" d="M 69.932913 240.639 
L 72.082374 240.639 
L 72.082374 388.608692 
L 69.932913 388.608692 
z
" style="fill:#1f77b4;"/>
   </g>
   <g id="patch_6">
    <path clip-path="url(#p2ea1f9492d)" d="M 72.619739 240.639 
L 74.7692 240.639 
L 74.7692 365.868188 
L 72.619739 365.868188 
z
" style="fill:#1f77b4;"/>
   </g>
   <g id="patch_7">
    <path clip-path="url(#p2ea1f9492d)" d="M 75.306565 240.639 
L 77.456026 240.639 
L 77.456026 361.686763 
L 75.306565 361.686763 
z
" style="fill:#1f77b4;"/>
   </g>
   <g id="patch_8">
    <path clip-path="url(#p2ea1f9492d)" d="M 77.993391 240.639 
L 80.142852 240.639 
L 80.142852 361.490801 
L 77.993391 361.490801 
z
" style="fill:#1f77b4;"/>
   </g>
   <g id="patch_9">
    <path clip-path="url(#p2ea1f9492d)" d="M 80.680217 240.639 
L 82.829677 240.639 
L 82.829677 359.37953 
L 80.680217 359.37953 
z
" style="fill:#1f77b4;"/>
   </g>
   <g id="patch_10">
    <path clip-path="url(#p2ea1f9492d)" d="M 83.367043 240.639 
L 85.516503 240.639 
L 85.516503 359.102364 
L 83.367043 359.102364 
z
" style="fill:#1f77b4;"/>
   </g>
   <g id="patch_11">
    <path clip-path="url(#p2ea1f9492d)" d="M 86.053868 240.639 
L 88.203329 240.639 
L 88.203329 355.46934 
L 86.053868 355.46934 
z
" style="fill:#1f77b4;"/>
   </g>
   <g id="patch_12">
    <path clip-path="url(#p2ea1f9492d)" d="M 88.740694 240.639 
L 90.890155 240.639 
L 90.890155 352.75725 
L 88.740694 352.75725 
z
" style="fill:#1f77b4;"/>
   </g>
   <g id="patch_13">
    <path clip-path="url(#p2ea1f9492d)" d="M 91.42752 240.639 
L 93.576981 240.639 
L 93.576981 351.849453 
L 91.42752 351.849453 
z
" style="fill:#1f77b4;"/>
   </g>
   <g id="patch_14">
    <path clip-path="url(#p2ea1f9492d)" d="M 94.114346 240.639 
L 96.263807 240.639 
L 96.263807 351.849453 
L 94.114346 351.849453 
z
" style="fill:#1f77b4;"/>
   </g>
   <g id="patch_15">
    <path clip-path="url(#p2ea1f9492d)" d="M 96.801172 240.639 
L 98.950633 240.639 
L 98.950633 350.492777 
L 96.801172 350.492777 
z
" style="fill:#1f77b4;"/>
   </g>
   <g id="patch_16">
    <path clip-path="url(#p2ea1f9492d)" d="M 99.487998 240.639 
L 101.637459 240.639 
L 101.637459 348.780628 
L 99.487998 348.780628 
z
" style="fill:#1f77b4;"/>
   </g>
   <g id="patch_17">
    <path clip-path="url(#p2ea1f9492d)" d="M 102.174824 240.639 
L 104.324284 240.639 
L 104.324284 348.780628 
L 102.174824 348.780628 
z
" style="fill:#1f77b4;"/>
   </g>
   <g id="patch_18">
    <path clip-path="url(#p2ea1f9492d)" d="M 104.86165 240.639 
L 107.01111 240.639 
L 107.01111 347.295588 
L 104.86165 347.295588 
z
" style="fill:#1f77b4;"/>
   </g>
   <g id="patch_19">
    <path clip-path="url(#p2ea1f9492d)" d="M 107.548476 240.639 
L 109.697936 240.639 
L 109.697936 347.015056 
L 107.548476 347.015056 
z
" style="fill:#1f77b4;"/>
   </g>
   <g id="patch_20">
    <path clip-path="url(#p2ea1f9492d)" d="M 110.235301 240.639 
L 112.384762 240.639 
L 112.384762 343.482666 
L 110.235301 343.482666 
z
" style="fill:#1f77b4;"/>
   </g>
   <g id="patch_21">
    <path clip-path="url(#p2ea1f9492d)" d="M 112.922127 240.639 
L 115.071588 240.639 
L 115.071588 341.236427 
L 112.922127 341.236427 
z
" style="fill:#1f77b4;"/>
   </g>
   <g id="patch_22">
    <path clip-path="url(#p2ea1f9492d)" d="M 118.295779 240.639 
L 120.44524 240.639 
L 120.44524 339.685888 
L 118.295779 339.685888 
z
" style="fill:#1f77b4;"/>
   </g>
   <g id="patch_23">
    <path clip-path="url(#p2ea1f9492d)" d="M 120.982605 240.639 
L 123.132066 240.639 
L 123.132066 339.52812 
L 120.982605 339.52812 
z
" style="fill:#1f77b4;"/>
   </g>
   <g id="patch_24">
    <path clip-path="url(#p2ea1f9492d)" d="M 123.669431 240.639 
L 125.818892 240.639 
L 125.818892 338.298109 
L 123.669431 338.298109 
z
" style="fill:#1f77b4;"/>
   </g>
   <g id="patch_25">
    <path clip-path="url(#p2ea1f9492d)" d="M 126.356257 240.639 
L 128.505717 240.639 
L 128.505717 337.496406 
L 126.356257 337.496406 
z
" style="fill:#1f77b4;"/>
   </g>
   <g id="patch_26">
    <path clip-path="url(#p2ea1f9492d)" d="M 129.043083 240.639 
L 131.192543 240.639 
L 131.192543 335.332717 
L 129.043083 335.332717 
z
" style="fill:#1f77b4;"/>
   </g>
   <g id="patch_27">
    <path clip-path="url(#p2ea1f9492d)" d="M 131.729909 240.639 
L 133.879369 240.639 
L 133.879369 334.833141 
L 131.729909 334.833141 
z
" style="fill:#1f77b4;"/>
   </g>
   <g id="patch_28">
    <path clip-path="url(#p2ea1f9492d)" d="M 134.416734 240.639 
L 136.566195 240.639 
L 136.566195 332.966342 
L 134.416734 332.966342 
z
" style="fill:#1f77b4;"/>
   </g>
   <g id="patch_29">
    <path clip-path="url(#p2ea1f9492d)" d="M 137.10356 240.639 
L 139.253021 240.639 
L 139.253021 332.963663 
L 137.10356 332.963663 
z
" style="fill:#1f77b4;"/>
   </g>
   <g id="patch_30">
    <path clip-path="url(#p2ea1f9492d)" d="M 139.790386 240.639 
L 141.939847 240.639 
L 141.939847 332.292114 
L 139.790386 332.292114 
z
" style="fill:#1f77b4;"/>
   </g>
   <g id="patch_31">
    <path clip-path="url(#p2ea1f9492d)" d="M 142.477212 240.639 
L 144.626673 240.639 
L 144.626673 331.803322 
L 142.477212 331.803322 
z
" style="fill:#1f77b4;"/>
   </g>
   <g id="patch_32">
    <path clip-path="url(#p2ea1f9492d)" d="M 145.164038 240.639 
L 147.313499 240.639 
L 147.313499 327.754984 
L 145.164038 327.754984 
z
" style="fill:#1f77b4;"/>
   </g>
   <g id="patch_33">
    <path clip-path="url(#p2ea1f9492d)" d="M 147.850864 240.639 
L 150.000325 240.639 
L 150.000325 326.426836 
L 147.850864 326.426836 
z
" style="fill:#1f77b4;"/>
   </g>
   <g id="patch_34">
    <path clip-path="url(#p2ea1f9492d)" d="M 153.224516 240.639 
L 155.373976 240.639 
L 155.373976 326.298415 
L 153.224516 326.298415 
z
" style="fill:#1f77b4;"/>
   </g>
   <g id="patch_35">
    <path clip-path="url(#p2ea1f9492d)" d="M 155.911341 240.639 
L 158.060802 240.639 
L 158.060802 323.039607 
L 155.911341 323.039607 
z
" style="fill:#1f77b4;"/>
   </g>
   <g id="patch_36">
    <path clip-path="url(#p2ea1f9492d)" d="M 161.284993 240.639 
L 163.434454 240.639 
L 163.434454 321.682121 
L 161.284993 321.682121 
z
" style="fill:#1f77b4;"/>
   </g>
   <g id="patch_37">
    <path clip-path="url(#p2ea1f9492d)" d="M 163.971819 240.639 
L 166.12128 240.639 
L 166.12128 321.642486 
L 163.971819 321.642486 
z
" style="fill:#1f77b4;"/>
   </g>
   <g id="patch_38">
    <path clip-path="url(#p2ea1f9492d)" d="M 166.658645 240.639 
L 168.808106 240.639 
L 168.808106 319.201778 
L 166.658645 319.201778 
z
" style="fill:#1f77b4;"/>
   </g>
   <g id="patch_39">
    <path clip-path="url(#p2ea1f9492d)" d="M 169.345471 240.639 
L 171.494932 240.639 
L 171.494932 318.806952 
L 169.345471 318.806952 
z
" style="fill:#1f77b4;"/>
   </g>
   <g id="patch_40">
    <path clip-path="url(#p2ea1f9492d)" d="M 174.719123 240.639 
L 176.868583 240.639 
L 176.868583 313.733538 
L 174.719123 313.733538 
z
" style="fill:#1f77b4;"/>
   </g>
   <g id="patch_41">
    <path clip-path="url(#p2ea1f9492d)" d="M 177.405949 240.639 
L 179.555409 240.639 
L 179.555409 312.722831 
L 177.405949 312.722831 
z
" style="fill:#1f77b4;"/>
   </g>
   <g id="patch_42">
    <path clip-path="url(#p2ea1f9492d)" d="M 180.092774 240.639 
L 182.242235 240.639 
L 182.242235 310.612551 
L 180.092774 310.612551 
z
" style="fill:#1f77b4;"/>
   </g>
   <g id="patch_43">
    <path clip-path="url(#p2ea1f9492d)" d="M 182.7796 240.639 
L 184.929061 240.639 
L 184.929061 310.250822 
L 182.7796 310.250822 
z
" style="fill:#1f77b4;"/>
   </g>
   <g id="patch_44">
    <path clip-path="url(#p2ea1f9492d)" d="M 185.466426 240.639 
L 187.615887 240.639 
L 187.615887 309.626496 
L 185.466426 309.626496 
z
" style="fill:#1f77b4;"/>
   </g>
   <g id="patch_45">
    <path clip-path="url(#p2ea1f9492d)" d="M 188.153252 240.639 
L 190.302713 240.639 
L 190.302713 307.737382 
L 188.153252 307.737382 
z
" style="fill:#1f77b4;"/>
   </g>
   <g id="patch_46">
    <path clip-path="url(#p2ea1f9492d)" d="M 190.840078 240.639 
L 192.989539 240.639 
L 192.989539 305.839045 
L 190.840078 305.839045 
z
" style="fill:#1f77b4;"/>
   </g>
   <g id="patch_47">
    <path clip-path="url(#p2ea1f9492d)" d="M 193.526904 240.639 
L 195.676365 240.639 
L 195.676365 305.573692 
L 193.526904 305.573692 
z
" style="fill:#1f77b4;"/>
   </g>
   <g id="patch_48">
    <path clip-path="url(#p2ea1f9492d)" d="M 196.21373 240.639 
L 198.36319 240.639 
L 198.36319 303.675355 
L 196.21373 303.675355 
z
" style="fill:#1f77b4;"/>
   </g>
   <g id="patch_49">
    <path clip-path="url(#p2ea1f9492d)" d="M 198.900556 240.639 
L 201.050016 240.639 
L 201.050016 303.675355 
L 198.900556 303.675355 
z
" style="fill:#1f77b4;"/>
   </g>
   <g id="patch_50">
    <path clip-path="url(#p2ea1f9492d)" d="M 201.587382 240.639 
L 203.736842 240.639 
L 203.736842 303.451872 
L 201.587382 303.451872 
z
" style="fill:#1f77b4;"/>
   </g>
   <g id="patch_51">
    <path clip-path="url(#p2ea1f9492d)" d="M 204.274207 240.639 
L 206.423668 240.639 
L 206.423668 302.992666 
L 204.274207 302.992666 
z
" style="fill:#1f77b4;"/>
   </g>
   <g id="patch_52">
    <path clip-path="url(#p2ea1f9492d)" d="M 206.961033 240.639 
L 209.110494 240.639 
L 209.110494 301.934681 
L 206.961033 301.934681 
z
" style="fill:#1f77b4;"/>
   </g>
   <g id="patch_53">
    <path clip-path="url(#p2ea1f9492d)" d="M 215.021511 240.639 
L 217.170972 240.639 
L 217.170972 300.28033 
L 215.021511 300.28033 
z
" style="fill:#1f77b4;"/>
   </g>
   <g id="patch_54">
    <path clip-path="url(#p2ea1f9492d)" d="M 217.708337 240.639 
L 219.857798 240.639 
L 219.857798 299.259278 
L 217.708337 299.259278 
z
" style="fill:#1f77b4;"/>
   </g>
   <g id="patch_55">
    <path clip-path="url(#p2ea1f9492d)" d="M 220.395163 240.639 
L 222.544623 240.639 
L 222.544623 296.745838 
L 220.395163 296.745838 
z
" style="fill:#1f77b4;"/>
   </g>
   <g id="patch_56">
    <path clip-path="url(#p2ea1f9492d)" d="M 223.081989 240.639 
L 225.231449 240.639 
L 225.231449 296.745838 
L 223.081989 296.745838 
z
" style="fill:#1f77b4;"/>
   </g>
   <g id="patch_57">
    <path clip-path="url(#p2ea1f9492d)" d="M 225.768815 240.639 
L 227.918275 240.639 
L 227.918275 294.562136 
L 225.768815 294.562136 
z
" style="fill:#1f77b4;"/>
   </g>
   <g id="patch_58">
    <path clip-path="url(#p2ea1f9492d)" d="M 228.45564 240.639 
L 230.605101 240.639 
L 230.605101 293.354206 
L 228.45564 293.354206 
z
" style="fill:#1f77b4;"/>
   </g>
   <g id="patch_59">
    <path clip-path="url(#p2ea1f9492d)" d="M 231.142466 240.639 
L 233.291927 240.639 
L 233.291927 291.923096 
L 231.142466 291.923096 
z
" style="fill:#1f77b4;"/>
   </g>
   <g id="patch_60">
    <path clip-path="url(#p2ea1f9492d)" d="M 233.829292 240.639 
L 235.978753 240.639 
L 235.978753 290.024759 
L 233.829292 290.024759 
z
" style="fill:#1f77b4;"/>
   </g>
   <g id="patch_61">
    <path clip-path="url(#p2ea1f9492d)" d="M 239.202944 240.639 
L 241.352405 240.639 
L 241.352405 289.667597 
L 239.202944 289.667597 
z
" style="fill:#1f77b4;"/>
   </g>
   <g id="patch_62">
    <path clip-path="url(#p2ea1f9492d)" d="M 241.88977 240.639 
L 244.039231 240.639 
L 244.039231 289.667597 
L 241.88977 289.667597 
z
" style="fill:#1f77b4;"/>
   </g>
   <g id="patch_63">
    <path clip-path="url(#p2ea1f9492d)" d="M 244.576596 240.639 
L 246.726056 240.639 
L 246.726056 289.159324 
L 244.576596 289.159324 
z
" style="fill:#1f77b4;"/>
   </g>
   <g id="patch_64">
    <path clip-path="url(#p2ea1f9492d)" d="M 247.263422 240.639 
L 249.412882 240.639 
L 249.412882 289.159324 
L 247.263422 289.159324 
z
" style="fill:#1f77b4;"/>
   </g>
   <g id="patch_65">
    <path clip-path="url(#p2ea1f9492d)" d="M 249.950247 240.639 
L 252.099708 240.639 
L 252.099708 286.613553 
L 249.950247 286.613553 
z
" style="fill:#1f77b4;"/>
   </g>
   <g id="patch_66">
    <path clip-path="url(#p2ea1f9492d)" d="M 252.637073 240.639 
L 254.786534 240.639 
L 254.786534 286.373922 
L 252.637073 286.373922 
z
" style="fill:#1f77b4;"/>
   </g>
   <g id="patch_67">
    <path clip-path="url(#p2ea1f9492d)" d="M 255.323899 240.639 
L 257.47336 240.639 
L 257.47336 285.826091 
L 255.323899 285.826091 
z
" style="fill:#1f77b4;"/>
   </g>
   <g id="patch_68">
    <path clip-path="url(#p2ea1f9492d)" d="M 260.697551 240.639 
L 262.847012 240.639 
L 262.847012 284.408028 
L 260.697551 284.408028 
z
" style="fill:#1f77b4;"/>
   </g>
   <g id="patch_69">
    <path clip-path="url(#p2ea1f9492d)" d="M 263.384377 240.639 
L 265.533838 240.639 
L 265.533838 283.402758 
L 263.384377 283.402758 
z
" style="fill:#1f77b4;"/>
   </g>
   <g id="patch_70">
    <path clip-path="url(#p2ea1f9492d)" d="M 266.071203 240.639 
L 268.220664 240.639 
L 268.220664 282.814499 
L 266.071203 282.814499 
z
" style="fill:#1f77b4;"/>
   </g>
   <g id="patch_71">
    <path clip-path="url(#p2ea1f9492d)" d="M 268.758029 240.639 
L 270.907489 240.639 
L 270.907489 282.362662 
L 268.758029 282.362662 
z
" style="fill:#1f77b4;"/>
   </g>
   <g id="patch_72">
    <path clip-path="url(#p2ea1f9492d)" d="M 274.13168 240.639 
L 276.281141 240.639 
L 276.281141 280.931552 
L 274.13168 280.931552 
z
" style="fill:#1f77b4;"/>
   </g>
   <g id="patch_73">
    <path clip-path="url(#p2ea1f9492d)" d="M 276.818506 240.639 
L 278.967967 240.639 
L 278.967967 279.863837 
L 276.818506 279.863837 
z
" style="fill:#1f77b4;"/>
   </g>
   <g id="patch_74">
    <path clip-path="url(#p2ea1f9492d)" d="M 279.505332 240.639 
L 281.654793 240.639 
L 281.654793 279.451722 
L 279.505332 279.451722 
z
" style="fill:#1f77b4;"/>
   </g>
   <g id="patch_75">
    <path clip-path="url(#p2ea1f9492d)" d="M 284.878984 240.639 
L 287.028445 240.639 
L 287.028445 278.27209 
L 284.878984 278.27209 
z
" style="fill:#1f77b4;"/>
   </g>
   <g id="patch_76">
    <path clip-path="url(#p2ea1f9492d)" d="M 295.626288 240.639 
L 297.775748 240.639 
L 297.775748 276.354902 
L 295.626288 276.354902 
z
" style="fill:#1f77b4;"/>
   </g>
   <g id="patch_77">
    <path clip-path="url(#p2ea1f9492d)" d="M 298.313113 240.639 
L 300.462574 240.639 
L 300.462574 270.978143 
L 298.313113 270.978143 
z
" style="fill:#1f77b4;"/>
   </g>
   <g id="patch_78">
    <path clip-path="url(#p2ea1f9492d)" d="M 300.999939 240.639 
L 303.1494 240.639 
L 303.1494 270.978143 
L 300.999939 270.978143 
z
" style="fill:#1f77b4;"/>
   </g>
   <g id="patch_79">
    <path clip-path="url(#p2ea1f9492d)" d="M 314.434069 240.639 
L 316.583529 240.639 
L 316.583529 270.559636 
L 314.434069 270.559636 
z
" style="fill:#1f77b4;"/>
   </g>
   <g id="patch_80">
    <path clip-path="url(#p2ea1f9492d)" d="M 319.807721 240.639 
L 321.957181 240.639 
L 321.957181 269.079806 
L 319.807721 269.079806 
z
" style="fill:#1f77b4;"/>
   </g>
   <g id="patch_81">
    <path clip-path="url(#p2ea1f9492d)" d="M 322.494546 240.639 
L 324.644007 240.639 
L 324.644007 269.079806 
L 322.494546 269.079806 
z
" style="fill:#1f77b4;"/>
   </g>
   <g id="patch_82">
    <path clip-path="url(#p2ea1f9492d)" d="M 327.868198 240.639 
L 330.017659 240.639 
L 330.017659 269.011011 
L 327.868198 269.011011 
z
" style="fill:#1f77b4;"/>
   </g>
   <g id="patch_83">
    <path clip-path="url(#p2ea1f9492d)" d="M 333.24185 240.639 
L 335.391311 240.639 
L 335.391311 265.818802 
L 333.24185 265.818802 
z
" style="fill:#1f77b4;"/>
   </g>
   <g id="patch_84">
    <path clip-path="url(#p2ea1f9492d)" d="M 335.928676 240.639 
L 338.078137 240.639 
L 338.078137 264.33691 
L 335.928676 264.33691 
z
" style="fill:#1f77b4;"/>
   </g>
   <g id="patch_85">
    <path clip-path="url(#p2ea1f9492d)" d="M 346.675979 240.639 
L 348.82544 240.639 
L 348.82544 262.738465 
L 346.675979 262.738465 
z
" style="fill:#1f77b4;"/>
   </g>
   <g id="patch_86">
    <path clip-path="url(#p2ea1f9492d)" d="M 349.362805 240.639 
L 351.512266 240.639 
L 351.512266 262.457805 
L 349.362805 262.457805 
z
" style="fill:#1f77b4;"/>
   </g>
   <g id="patch_87">
    <path clip-path="url(#p2ea1f9492d)" d="M 357.423283 240.639 
L 359.572744 240.639 
L 359.572744 261.414685 
L 357.423283 261.414685 
z
" style="fill:#1f77b4;"/>
   </g>
   <g id="patch_88">
    <path clip-path="url(#p2ea1f9492d)" d="M 368.170586 240.639 
L 370.320047 240.639 
L 370.320047 259.986599 
L 368.170586 259.986599 
z
" style="fill:#1f77b4;"/>
   </g>
   <g id="patch_89">
    <path clip-path="url(#p2ea1f9492d)" d="M 370.857412 240.639 
L 373.006873 240.639 
L 373.006873 259.906598 
L 370.857412 259.906598 
z
" style="fill:#1f77b4;"/>
   </g>
   <g id="patch_90">
    <path clip-path="url(#p2ea1f9492d)" d="M 376.231064 240.639 
L 378.380525 240.639 
L 378.380525 257.563266 
L 376.231064 257.563266 
z
" style="fill:#1f77b4;"/>
   </g>
   <g id="patch_91">
    <path clip-path="url(#p2ea1f9492d)" d="M 378.91789 240.639 
L 381.067351 240.639 
L 381.067351 257.563266 
L 378.91789 257.563266 
z
" style="fill:#1f77b4;"/>
   </g>
   <g id="patch_92">
    <path clip-path="url(#p2ea1f9492d)" d="M 381.604716 240.639 
L 383.754177 240.639 
L 383.754177 257.563266 
L 381.604716 257.563266 
z
" style="fill:#1f77b4;"/>
   </g>
   <g id="patch_93">
    <path clip-path="url(#p2ea1f9492d)" d="M 384.291542 240.639 
L 386.441003 240.639 
L 386.441003 257.563266 
L 384.291542 257.563266 
z
" style="fill:#1f77b4;"/>
   </g>
   <g id="patch_94">
    <path clip-path="url(#p2ea1f9492d)" d="M 389.665194 240.639 
L 391.814654 240.639 
L 391.814654 253.966448 
L 389.665194 253.966448 
z
" style="fill:#1f77b4;"/>
   </g>
   <g id="patch_95">
    <path clip-path="url(#p2ea1f9492d)" d="M 400.412497 240.639 
L 402.561958 240.639 
L 402.561958 248.159083 
L 400.412497 248.159083 
z
" style="fill:#1f77b4;"/>
   </g>
   <g id="patch_96">
    <path clip-path="url(#p2ea1f9492d)" d="M 408.472975 240.639 
L 410.622435 240.639 
L 410.622435 245.136934 
L 408.472975 245.136934 
z
" style="fill:#1f77b4;"/>
   </g>
   <g id="patch_97">
    <path clip-path="url(#p2ea1f9492d)" d="M 411.159801 240.639 
L 413.309261 240.639 
L 413.309261 244.361266 
L 411.159801 244.361266 
z
" style="fill:#1f77b4;"/>
   </g>
   <g id="patch_98">
    <path clip-path="url(#p2ea1f9492d)" d="M 416.533452 240.639 
L 418.682913 240.639 
L 418.682913 243.402027 
L 416.533452 243.402027 
z
" style="fill:#1f77b4;"/>
   </g>
   <g id="patch_99">
    <path clip-path="url(#p2ea1f9492d)" d="M 427.280756 240.639 
L 429.430217 240.639 
L 429.430217 235.393382 
L 427.280756 235.393382 
z
" style="fill:#1f77b4;"/>
   </g>
   <g id="patch_100">
    <path clip-path="url(#p2ea1f9492d)" d="M 435.341234 240.639 
L 437.490694 240.639 
L 437.490694 233.166481 
L 435.341234 233.166481 
z
" style="fill:#1f77b4;"/>
   </g>
   <g id="patch_101">
    <path clip-path="url(#p2ea1f9492d)" d="M 454.149015 240.639 
L 456.298476 240.639 
L 456.298476 225.671812 
L 454.149015 225.671812 
z
" style="fill:#1f77b4;"/>
   </g>
   <g id="patch_102">
    <path clip-path="url(#p2ea1f9492d)" d="M 462.209492 240.639 
L 464.358953 240.639 
L 464.358953 224.712573 
L 462.209492 224.712573 
z
" style="fill:#1f77b4;"/>
   </g>
   <g id="patch_103">
    <path clip-path="url(#p2ea1f9492d)" d="M 464.896318 240.639 
L 467.045779 240.639 
L 467.045779 219.747351 
L 464.896318 219.747351 
z
" style="fill:#1f77b4;"/>
   </g>
   <g id="patch_104">
    <path clip-path="url(#p2ea1f9492d)" d="M 470.26997 240.639 
L 472.419431 240.639 
L 472.419431 215.588711 
L 470.26997 215.588711 
z
" style="fill:#1f77b4;"/>
   </g>
   <g id="patch_105">
    <path clip-path="url(#p2ea1f9492d)" d="M 478.330448 240.639 
L 480.479909 240.639 
L 480.479909 209.661115 
L 478.330448 209.661115 
z
" style="fill:#1f77b4;"/>
   </g>
   <g id="patch_106">
    <path clip-path="url(#p2ea1f9492d)" d="M 502.511881 240.639 
L 504.661341 240.639 
L 504.661341 192.26485 
L 502.511881 192.26485 
z
" style="fill:#1f77b4;"/>
   </g>
   <g id="patch_107">
    <path clip-path="url(#p2ea1f9492d)" d="M 526.693314 240.639 
L 528.842774 240.639 
L 528.842774 153.599977 
L 526.693314 153.599977 
z
" style="fill:#1f77b4;"/>
   </g>
   <g id="patch_108">
    <path clip-path="url(#p2ea1f9492d)" d="M 115.608953 240.639 
L 117.758414 240.639 
L 117.758414 339.751906 
L 115.608953 339.751906 
z
" style="fill:#ff7f0e;"/>
   </g>
   <g id="patch_109">
    <path clip-path="url(#p2ea1f9492d)" d="M 150.53769 240.639 
L 152.68715 240.639 
L 152.68715 326.426836 
L 150.53769 326.426836 
z
" style="fill:#ff7f0e;"/>
   </g>
   <g id="patch_110">
    <path clip-path="url(#p2ea1f9492d)" d="M 158.598167 240.639 
L 160.747628 240.639 
L 160.747628 321.682121 
L 158.598167 321.682121 
z
" style="fill:#ff7f0e;"/>
   </g>
   <g id="patch_111">
    <path clip-path="url(#p2ea1f9492d)" d="M 172.032297 240.639 
L 174.181758 240.639 
L 174.181758 313.787628 
L 172.032297 313.787628 
z
" style="fill:#ff7f0e;"/>
   </g>
   <g id="patch_112">
    <path clip-path="url(#p2ea1f9492d)" d="M 209.647859 240.639 
L 211.79732 240.639 
L 211.79732 300.92028 
L 209.647859 300.92028 
z
" style="fill:#ff7f0e;"/>
   </g>
   <g id="patch_113">
    <path clip-path="url(#p2ea1f9492d)" d="M 212.334685 240.639 
L 214.484146 240.639 
L 214.484146 300.396675 
L 212.334685 300.396675 
z
" style="fill:#ff7f0e;"/>
   </g>
   <g id="patch_114">
    <path clip-path="url(#p2ea1f9492d)" d="M 236.516118 240.639 
L 238.665579 240.639 
L 238.665579 290.024759 
L 236.516118 290.024759 
z
" style="fill:#ff7f0e;"/>
   </g>
   <g id="patch_115">
    <path clip-path="url(#p2ea1f9492d)" d="M 258.010725 240.639 
L 260.160186 240.639 
L 260.160186 284.628739 
L 258.010725 284.628739 
z
" style="fill:#ff7f0e;"/>
   </g>
   <g id="patch_116">
    <path clip-path="url(#p2ea1f9492d)" d="M 271.444855 240.639 
L 273.594315 240.639 
L 273.594315 281.719014 
L 271.444855 281.719014 
z
" style="fill:#ff7f0e;"/>
   </g>
   <g id="patch_117">
    <path clip-path="url(#p2ea1f9492d)" d="M 282.192158 240.639 
L 284.341619 240.639 
L 284.341619 279.451722 
L 282.192158 279.451722 
z
" style="fill:#ff7f0e;"/>
   </g>
   <g id="patch_118">
    <path clip-path="url(#p2ea1f9492d)" d="M 287.56581 240.639 
L 289.715271 240.639 
L 289.715271 277.028389 
L 287.56581 277.028389 
z
" style="fill:#ff7f0e;"/>
   </g>
   <g id="patch_119">
    <path clip-path="url(#p2ea1f9492d)" d="M 290.252636 240.639 
L 292.402096 240.639 
L 292.402096 277.028389 
L 290.252636 277.028389 
z
" style="fill:#ff7f0e;"/>
   </g>
   <g id="patch_120">
    <path clip-path="url(#p2ea1f9492d)" d="M 292.939462 240.639 
L 295.088922 240.639 
L 295.088922 276.84138 
L 292.939462 276.84138 
z
" style="fill:#ff7f0e;"/>
   </g>
   <g id="patch_121">
    <path clip-path="url(#p2ea1f9492d)" d="M 303.686765 240.639 
L 305.836226 240.639 
L 305.836226 270.978143 
L 303.686765 270.978143 
z
" style="fill:#ff7f0e;"/>
   </g>
   <g id="patch_122">
    <path clip-path="url(#p2ea1f9492d)" d="M 306.373591 240.639 
L 308.523052 240.639 
L 308.523052 270.978143 
L 306.373591 270.978143 
z
" style="fill:#ff7f0e;"/>
   </g>
   <g id="patch_123">
    <path clip-path="url(#p2ea1f9492d)" d="M 309.060417 240.639 
L 311.209878 240.639 
L 311.209878 270.978143 
L 309.060417 270.978143 
z
" style="fill:#ff7f0e;"/>
   </g>
   <g id="patch_124">
    <path clip-path="url(#p2ea1f9492d)" d="M 311.747243 240.639 
L 313.896704 240.639 
L 313.896704 270.978143 
L 311.747243 270.978143 
z
" style="fill:#ff7f0e;"/>
   </g>
   <g id="patch_125">
    <path clip-path="url(#p2ea1f9492d)" d="M 317.120895 240.639 
L 319.270355 240.639 
L 319.270355 269.663699 
L 317.120895 269.663699 
z
" style="fill:#ff7f0e;"/>
   </g>
   <g id="patch_126">
    <path clip-path="url(#p2ea1f9492d)" d="M 325.181372 240.639 
L 327.330833 240.639 
L 327.330833 269.079806 
L 325.181372 269.079806 
z
" style="fill:#ff7f0e;"/>
   </g>
   <g id="patch_127">
    <path clip-path="url(#p2ea1f9492d)" d="M 330.555024 240.639 
L 332.704485 240.639 
L 332.704485 268.40451 
L 330.555024 268.40451 
z
" style="fill:#ff7f0e;"/>
   </g>
   <g id="patch_128">
    <path clip-path="url(#p2ea1f9492d)" d="M 338.615502 240.639 
L 340.764962 240.639 
L 340.764962 264.125044 
L 338.615502 264.125044 
z
" style="fill:#ff7f0e;"/>
   </g>
   <g id="patch_129">
    <path clip-path="url(#p2ea1f9492d)" d="M 341.302328 240.639 
L 343.451788 240.639 
L 343.451788 264.035939 
L 341.302328 264.035939 
z
" style="fill:#ff7f0e;"/>
   </g>
   <g id="patch_130">
    <path clip-path="url(#p2ea1f9492d)" d="M 343.989154 240.639 
L 346.138614 240.639 
L 346.138614 263.826389 
L 343.989154 263.826389 
z
" style="fill:#ff7f0e;"/>
   </g>
   <g id="patch_131">
    <path clip-path="url(#p2ea1f9492d)" d="M 352.049631 240.639 
L 354.199092 240.639 
L 354.199092 262.457805 
L 352.049631 262.457805 
z
" style="fill:#ff7f0e;"/>
   </g>
   <g id="patch_132">
    <path clip-path="url(#p2ea1f9492d)" d="M 354.736457 240.639 
L 356.885918 240.639 
L 356.885918 261.982372 
L 354.736457 261.982372 
z
" style="fill:#ff7f0e;"/>
   </g>
   <g id="patch_133">
    <path clip-path="url(#p2ea1f9492d)" d="M 360.110109 240.639 
L 362.25957 240.639 
L 362.25957 260.95122 
L 360.110109 260.95122 
z
" style="fill:#ff7f0e;"/>
   </g>
   <g id="patch_134">
    <path clip-path="url(#p2ea1f9492d)" d="M 362.796935 240.639 
L 364.946395 240.639 
L 364.946395 259.986599 
L 362.796935 259.986599 
z
" style="fill:#ff7f0e;"/>
   </g>
   <g id="patch_135">
    <path clip-path="url(#p2ea1f9492d)" d="M 365.483761 240.639 
L 367.633221 240.639 
L 367.633221 259.986599 
L 365.483761 259.986599 
z
" style="fill:#ff7f0e;"/>
   </g>
   <g id="patch_136">
    <path clip-path="url(#p2ea1f9492d)" d="M 373.544238 240.639 
L 375.693699 240.639 
L 375.693699 258.530999 
L 373.544238 258.530999 
z
" style="fill:#ff7f0e;"/>
   </g>
   <g id="patch_137">
    <path clip-path="url(#p2ea1f9492d)" d="M 386.978368 240.639 
L 389.127828 240.639 
L 389.127828 256.176461 
L 386.978368 256.176461 
z
" style="fill:#ff7f0e;"/>
   </g>
   <g id="patch_138">
    <path clip-path="url(#p2ea1f9492d)" d="M 392.352019 240.639 
L 394.50148 240.639 
L 394.50148 252.309849 
L 392.352019 252.309849 
z
" style="fill:#ff7f0e;"/>
   </g>
   <g id="patch_139">
    <path clip-path="url(#p2ea1f9492d)" d="M 395.038845 240.639 
L 397.188306 240.639 
L 397.188306 252.038015 
L 395.038845 252.038015 
z
" style="fill:#ff7f0e;"/>
   </g>
   <g id="patch_140">
    <path clip-path="url(#p2ea1f9492d)" d="M 397.725671 240.639 
L 399.875132 240.639 
L 399.875132 249.614683 
L 397.725671 249.614683 
z
" style="fill:#ff7f0e;"/>
   </g>
   <g id="patch_141">
    <path clip-path="url(#p2ea1f9492d)" d="M 403.099323 240.639 
L 405.248784 240.639 
L 405.248784 246.547798 
L 403.099323 246.547798 
z
" style="fill:#ff7f0e;"/>
   </g>
   <g id="patch_142">
    <path clip-path="url(#p2ea1f9492d)" d="M 405.786149 240.639 
L 407.93561 240.639 
L 407.93561 245.838212 
L 405.786149 245.838212 
z
" style="fill:#ff7f0e;"/>
   </g>
   <g id="patch_143">
    <path clip-path="url(#p2ea1f9492d)" d="M 413.846627 240.639 
L 415.996087 240.639 
L 415.996087 244.020638 
L 413.846627 244.020638 
z
" style="fill:#ff7f0e;"/>
   </g>
   <g id="patch_144">
    <path clip-path="url(#p2ea1f9492d)" d="M 419.220278 240.639 
L 421.369739 240.639 
L 421.369739 239.902732 
L 419.220278 239.902732 
z
" style="fill:#ff7f0e;"/>
   </g>
   <g id="patch_145">
    <path clip-path="url(#p2ea1f9492d)" d="M 421.907104 240.639 
L 424.056565 240.639 
L 424.056565 239.137551 
L 421.907104 239.137551 
z
" style="fill:#ff7f0e;"/>
   </g>
   <g id="patch_146">
    <path clip-path="url(#p2ea1f9492d)" d="M 424.59393 240.639 
L 426.743391 240.639 
L 426.743391 236.28932 
L 424.59393 236.28932 
z
" style="fill:#ff7f0e;"/>
   </g>
   <g id="patch_147">
    <path clip-path="url(#p2ea1f9492d)" d="M 429.967582 240.639 
L 432.117043 240.639 
L 432.117043 234.999105 
L 429.967582 234.999105 
z
" style="fill:#ff7f0e;"/>
   </g>
   <g id="patch_148">
    <path clip-path="url(#p2ea1f9492d)" d="M 432.654408 240.639 
L 434.803868 240.639 
L 434.803868 234.815128 
L 432.654408 234.815128 
z
" style="fill:#ff7f0e;"/>
   </g>
   <g id="patch_149">
    <path clip-path="url(#p2ea1f9492d)" d="M 438.02806 240.639 
L 440.17752 240.639 
L 440.17752 232.703083 
L 438.02806 232.703083 
z
" style="fill:#ff7f0e;"/>
   </g>
   <g id="patch_150">
    <path clip-path="url(#p2ea1f9492d)" d="M 440.714885 240.639 
L 442.864346 240.639 
L 442.864346 232.575772 
L 440.714885 232.575772 
z
" style="fill:#ff7f0e;"/>
   </g>
   <g id="patch_151">
    <path clip-path="url(#p2ea1f9492d)" d="M 443.401711 240.639 
L 445.551172 240.639 
L 445.551172 226.648432 
L 443.401711 226.648432 
z
" style="fill:#ff7f0e;"/>
   </g>
   <g id="patch_152">
    <path clip-path="url(#p2ea1f9492d)" d="M 446.088537 240.639 
L 448.237998 240.639 
L 448.237998 225.671812 
L 446.088537 225.671812 
z
" style="fill:#ff7f0e;"/>
   </g>
   <g id="patch_153">
    <path clip-path="url(#p2ea1f9492d)" d="M 448.775363 240.639 
L 450.924824 240.639 
L 450.924824 225.671812 
L 448.775363 225.671812 
z
" style="fill:#ff7f0e;"/>
   </g>
   <g id="patch_154">
    <path clip-path="url(#p2ea1f9492d)" d="M 451.462189 240.639 
L 453.61165 240.639 
L 453.61165 225.671812 
L 451.462189 225.671812 
z
" style="fill:#ff7f0e;"/>
   </g>
   <g id="patch_155">
    <path clip-path="url(#p2ea1f9492d)" d="M 456.835841 240.639 
L 458.985301 240.639 
L 458.985301 225.671812 
L 456.835841 225.671812 
z
" style="fill:#ff7f0e;"/>
   </g>
   <g id="patch_156">
    <path clip-path="url(#p2ea1f9492d)" d="M 459.522667 240.639 
L 461.672127 240.639 
L 461.672127 225.306582 
L 459.522667 225.306582 
z
" style="fill:#ff7f0e;"/>
   </g>
   <g id="patch_157">
    <path clip-path="url(#p2ea1f9492d)" d="M 467.583144 240.639 
L 469.732605 240.639 
L 469.732605 217.654434 
L 467.583144 217.654434 
z
" style="fill:#ff7f0e;"/>
   </g>
   <g id="patch_158">
    <path clip-path="url(#p2ea1f9492d)" d="M 472.956796 240.639 
L 475.106257 240.639 
L 475.106257 211.798768 
L 472.956796 211.798768 
z
" style="fill:#ff7f0e;"/>
   </g>
   <g id="patch_159">
    <path clip-path="url(#p2ea1f9492d)" d="M 475.643622 240.639 
L 477.793083 240.639 
L 477.793083 209.80568 
L 475.643622 209.80568 
z
" style="fill:#ff7f0e;"/>
   </g>
   <g id="patch_160">
    <path clip-path="url(#p2ea1f9492d)" d="M 481.017274 240.639 
L 483.166734 240.639 
L 483.166734 204.911141 
L 481.017274 204.911141 
z
" style="fill:#ff7f0e;"/>
   </g>
   <g id="patch_161">
    <path clip-path="url(#p2ea1f9492d)" d="M 483.7041 240.639 
L 485.85356 240.639 
L 485.85356 201.819678 
L 483.7041 201.819678 
z
" style="fill:#ff7f0e;"/>
   </g>
   <g id="patch_162">
    <path clip-path="url(#p2ea1f9492d)" d="M 486.390925 240.639 
L 488.540386 240.639 
L 488.540386 199.237606 
L 486.390925 199.237606 
z
" style="fill:#ff7f0e;"/>
   </g>
   <g id="patch_163">
    <path clip-path="url(#p2ea1f9492d)" d="M 489.077751 240.639 
L 491.227212 240.639 
L 491.227212 196.876848 
L 489.077751 196.876848 
z
" style="fill:#ff7f0e;"/>
   </g>
   <g id="patch_164">
    <path clip-path="url(#p2ea1f9492d)" d="M 491.764577 240.639 
L 493.914038 240.639 
L 493.914038 193.621169 
L 491.764577 193.621169 
z
" style="fill:#ff7f0e;"/>
   </g>
   <g id="patch_165">
    <path clip-path="url(#p2ea1f9492d)" d="M 494.451403 240.639 
L 496.600864 240.639 
L 496.600864 192.898878 
L 494.451403 192.898878 
z
" style="fill:#ff7f0e;"/>
   </g>
   <g id="patch_166">
    <path clip-path="url(#p2ea1f9492d)" d="M 497.138229 240.639 
L 499.28769 240.639 
L 499.28769 192.709797 
L 497.138229 192.709797 
z
" style="fill:#ff7f0e;"/>
   </g>
   <g id="patch_167">
    <path clip-path="url(#p2ea1f9492d)" d="M 499.825055 240.639 
L 501.974516 240.639 
L 501.974516 192.619537 
L 499.825055 192.619537 
z
" style="fill:#ff7f0e;"/>
   </g>
   <g id="patch_168">
    <path clip-path="url(#p2ea1f9492d)" d="M 505.198707 240.639 
L 507.348167 240.639 
L 507.348167 192.190816 
L 505.198707 192.190816 
z
" style="fill:#ff7f0e;"/>
   </g>
   <g id="patch_169">
    <path clip-path="url(#p2ea1f9492d)" d="M 507.885533 240.639 
L 510.034993 240.639 
L 510.034993 191.934035 
L 507.885533 191.934035 
z
" style="fill:#ff7f0e;"/>
   </g>
   <g id="patch_170">
    <path clip-path="url(#p2ea1f9492d)" d="M 510.572358 240.639 
L 512.721819 240.639 
L 512.721819 186.578574 
L 510.572358 186.578574 
z
" style="fill:#ff7f0e;"/>
   </g>
   <g id="patch_171">
    <path clip-path="url(#p2ea1f9492d)" d="M 513.259184 240.639 
L 515.408645 240.639 
L 515.408645 186.434613 
L 513.259184 186.434613 
z
" style="fill:#ff7f0e;"/>
   </g>
   <g id="patch_172">
    <path clip-path="url(#p2ea1f9492d)" d="M 515.94601 240.639 
L 518.095471 240.639 
L 518.095471 176.001208 
L 515.94601 176.001208 
z
" style="fill:#ff7f0e;"/>
   </g>
   <g id="patch_173">
    <path clip-path="url(#p2ea1f9492d)" d="M 518.632836 240.639 
L 520.782297 240.639 
L 520.782297 171.949126 
L 518.632836 171.949126 
z
" style="fill:#ff7f0e;"/>
   </g>
   <g id="patch_174">
    <path clip-path="url(#p2ea1f9492d)" d="M 521.319662 240.639 
L 523.469123 240.639 
L 523.469123 169.033559 
L 521.319662 169.033559 
z
" style="fill:#ff7f0e;"/>
   </g>
   <g id="patch_175">
    <path clip-path="url(#p2ea1f9492d)" d="M 524.006488 240.639 
L 526.155949 240.639 
L 526.155949 155.914862 
L 524.006488 155.914862 
z
" style="fill:#ff7f0e;"/>
   </g>
   <g id="patch_176">
    <path clip-path="url(#p2ea1f9492d)" d="M 529.38014 240.639 
L 531.5296 240.639 
L 531.5296 152.466802 
L 529.38014 152.466802 
z
" style="fill:#ff7f0e;"/>
   </g>
   <g id="patch_177">
    <path clip-path="url(#p2ea1f9492d)" d="M 532.066966 240.639 
L 534.216426 240.639 
L 534.216426 146.829502 
L 532.066966 146.829502 
z
" style="fill:#ff7f0e;"/>
   </g>
   <g id="patch_178">
    <path clip-path="url(#p2ea1f9492d)" d="M 534.753791 240.639 
L 536.903252 240.639 
L 536.903252 143.268046 
L 534.753791 143.268046 
z
" style="fill:#ff7f0e;"/>
   </g>
   <g id="patch_179">
    <path clip-path="url(#p2ea1f9492d)" d="M 537.440617 240.639 
L 539.590078 240.639 
L 539.590078 137.286934 
L 537.440617 137.286934 
z
" style="fill:#ff7f0e;"/>
   </g>
   <g id="patch_180">
    <path clip-path="url(#p2ea1f9492d)" d="M 540.127443 240.639 
L 542.276904 240.639 
L 542.276904 133.095985 
L 540.127443 133.095985 
z
" style="fill:#ff7f0e;"/>
   </g>
   <g id="patch_181">
    <path clip-path="url(#p2ea1f9492d)" d="M 542.814269 240.639 
L 544.96373 240.639 
L 544.96373 131.859308 
L 542.814269 131.859308 
z
" style="fill:#ff7f0e;"/>
   </g>
   <g id="patch_182">
    <path clip-path="url(#p2ea1f9492d)" d="M 545.501095 240.639 
L 547.650556 240.639 
L 547.650556 125.58049 
L 545.501095 125.58049 
z
" style="fill:#ff7f0e;"/>
   </g>
   <g id="patch_183">
    <path clip-path="url(#p2ea1f9492d)" d="M 548.187921 240.639 
L 550.337382 240.639 
L 550.337382 119.664734 
L 548.187921 119.664734 
z
" style="fill:#ff7f0e;"/>
   </g>
   <g id="patch_184">
    <path clip-path="url(#p2ea1f9492d)" d="M 550.874747 240.639 
L 553.024207 240.639 
L 553.024207 110.389318 
L 550.874747 110.389318 
z
" style="fill:#ff7f0e;"/>
   </g>
   <g id="patch_185">
    <path clip-path="url(#p2ea1f9492d)" d="M 553.561573 240.639 
L 555.711033 240.639 
L 555.711033 110.389318 
L 553.561573 110.389318 
z
" style="fill:#ff7f0e;"/>
   </g>
   <g id="patch_186">
    <path clip-path="url(#p2ea1f9492d)" d="M 556.248398 240.639 
L 558.397859 240.639 
L 558.397859 107.33279 
L 556.248398 107.33279 
z
" style="fill:#ff7f0e;"/>
   </g>
   <g id="patch_187">
    <path clip-path="url(#p2ea1f9492d)" d="M 558.935224 240.639 
L 561.084685 240.639 
L 561.084685 98.41589 
L 558.935224 98.41589 
z
" style="fill:#ff7f0e;"/>
   </g>
   <g id="patch_188">
    <path clip-path="url(#p2ea1f9492d)" d="M 561.62205 240.639 
L 563.771511 240.639 
L 563.771511 91.214291 
L 561.62205 91.214291 
z
" style="fill:#ff7f0e;"/>
   </g>
   <g id="patch_189">
    <path clip-path="url(#p2ea1f9492d)" d="M 564.308876 240.639 
L 566.458337 240.639 
L 566.458337 85.467797 
L 564.308876 85.467797 
z
" style="fill:#ff7f0e;"/>
   </g>
   <g id="patch_190">
    <path clip-path="url(#p2ea1f9492d)" d="M 566.995702 240.639 
L 569.145163 240.639 
L 569.145163 62.968383 
L 566.995702 62.968383 
z
" style="fill:#ff7f0e;"/>
   </g>
   <g id="patch_191">
    <path clip-path="url(#p2ea1f9492d)" d="M 569.682528 240.639 
L 571.831989 240.639 
L 571.831989 42.966273 
L 569.682528 42.966273 
z
" style="fill:#ff7f0e;"/>
   </g>
   <g id="matplotlib.axis_1">
    <g id="xtick_1">
     <g id="line2d_1">
      <defs>
       <path d="M 0 0 
L 0 3.5 
" id="mbb10668657" style="stroke:#000000;stroke-width:0.8;"/>
      </defs>
      <g>
       <use style="stroke:#000000;stroke-width:0.8;" x="65.633992" xlink:href="#mbb10668657" y="458.079"/>
      </g>
     </g>
     <g id="text_1">
      <!-- 0 -->
      <defs>
       <path d="M 3.609375 32.71875 
Q 3.609375 44.046875 7.03125 52.21875 
Q 10.453125 60.40625 16.109375 64.40625 
Q 20.515625 67.578125 25.203125 67.578125 
Q 32.8125 67.578125 38.875 59.8125 
Q 46.4375 50.203125 46.4375 33.734375 
Q 46.4375 22.21875 43.109375 14.15625 
Q 39.796875 6.109375 34.640625 2.46875 
Q 29.5 -1.171875 24.703125 -1.171875 
Q 15.234375 -1.171875 8.9375 10.015625 
Q 3.609375 19.4375 3.609375 32.71875 
z
M 13.1875 31.5 
Q 13.1875 17.828125 16.546875 9.1875 
Q 19.34375 1.90625 24.859375 1.90625 
Q 27.484375 1.90625 30.3125 4.265625 
Q 33.15625 6.640625 34.625 12.203125 
Q 36.859375 20.609375 36.859375 35.890625 
Q 36.859375 47.21875 34.515625 54.78125 
Q 32.765625 60.40625 29.984375 62.75 
Q 27.984375 64.359375 25.140625 64.359375 
Q 21.828125 64.359375 19.234375 61.375 
Q 15.71875 57.328125 14.453125 48.625 
Q 13.1875 39.9375 13.1875 31.5 
z
" id="TimesNewRomanPSMT-48"/>
      </defs>
      <g transform="translate(62.633992 473.4115)scale(0.12 -0.12)">
       <use xlink:href="#TimesNewRomanPSMT-48"/>
      </g>
     </g>
    </g>
    <g id="xtick_2">
     <g id="line2d_2">
      <g>
       <use style="stroke:#000000;stroke-width:0.8;" x="132.804639" xlink:href="#mbb10668657" y="458.079"/>
      </g>
     </g>
     <g id="text_2">
      <!-- 25 -->
      <defs>
       <path d="M 45.84375 12.75 
L 41.21875 0 
L 2.15625 0 
L 2.15625 1.8125 
Q 19.390625 17.53125 26.421875 27.484375 
Q 33.453125 37.453125 33.453125 45.703125 
Q 33.453125 52 29.59375 56.046875 
Q 25.734375 60.109375 20.359375 60.109375 
Q 15.484375 60.109375 11.59375 57.25 
Q 7.71875 54.390625 5.859375 48.875 
L 4.046875 48.875 
Q 5.28125 57.90625 10.328125 62.734375 
Q 15.375 67.578125 22.953125 67.578125 
Q 31 67.578125 36.390625 62.40625 
Q 41.796875 57.234375 41.796875 50.203125 
Q 41.796875 45.171875 39.453125 40.140625 
Q 35.84375 32.234375 27.734375 23.390625 
Q 15.578125 10.109375 12.546875 7.375 
L 29.828125 7.375 
Q 35.109375 7.375 37.234375 7.765625 
Q 39.359375 8.15625 41.0625 9.34375 
Q 42.78125 10.546875 44.046875 12.75 
z
" id="TimesNewRomanPSMT-50"/>
       <path d="M 43.40625 66.21875 
L 39.59375 57.90625 
L 19.671875 57.90625 
L 15.328125 49.03125 
Q 28.265625 47.125 35.84375 39.40625 
Q 42.328125 32.765625 42.328125 23.78125 
Q 42.328125 18.5625 40.203125 14.109375 
Q 38.09375 9.671875 34.859375 6.546875 
Q 31.640625 3.421875 27.6875 1.515625 
Q 22.078125 -1.171875 16.15625 -1.171875 
Q 10.203125 -1.171875 7.484375 0.84375 
Q 4.78125 2.875 4.78125 5.328125 
Q 4.78125 6.6875 5.90625 7.734375 
Q 7.03125 8.796875 8.734375 8.796875 
Q 10.015625 8.796875 10.96875 8.40625 
Q 11.921875 8.015625 14.203125 6.390625 
Q 17.875 3.859375 21.625 3.859375 
Q 27.34375 3.859375 31.65625 8.171875 
Q 35.984375 12.5 35.984375 18.703125 
Q 35.984375 24.703125 32.125 29.90625 
Q 28.265625 35.109375 21.484375 37.9375 
Q 16.15625 40.140625 6.984375 40.484375 
L 19.671875 66.21875 
z
" id="TimesNewRomanPSMT-53"/>
      </defs>
      <g transform="translate(126.804639 473.4115)scale(0.12 -0.12)">
       <use xlink:href="#TimesNewRomanPSMT-50"/>
       <use x="50" xlink:href="#TimesNewRomanPSMT-53"/>
      </g>
     </g>
    </g>
    <g id="xtick_3">
     <g id="line2d_3">
      <g>
       <use style="stroke:#000000;stroke-width:0.8;" x="199.975286" xlink:href="#mbb10668657" y="458.079"/>
      </g>
     </g>
     <g id="text_3">
      <!-- 50 -->
      <g transform="translate(193.975286 473.4115)scale(0.12 -0.12)">
       <use xlink:href="#TimesNewRomanPSMT-53"/>
       <use x="50" xlink:href="#TimesNewRomanPSMT-48"/>
      </g>
     </g>
    </g>
    <g id="xtick_4">
     <g id="line2d_4">
      <g>
       <use style="stroke:#000000;stroke-width:0.8;" x="267.145933" xlink:href="#mbb10668657" y="458.079"/>
      </g>
     </g>
     <g id="text_4">
      <!-- 75 -->
      <defs>
       <path d="M 10.0625 66.21875 
L 45.5625 66.21875 
L 45.5625 64.359375 
L 23.484375 -1.375 
L 18.015625 -1.375 
L 37.796875 58.25 
L 19.578125 58.25 
Q 14.0625 58.25 11.71875 56.9375 
Q 7.625 54.6875 5.125 50 
L 3.71875 50.53125 
z
" id="TimesNewRomanPSMT-55"/>
      </defs>
      <g transform="translate(261.145933 473.4115)scale(0.12 -0.12)">
       <use xlink:href="#TimesNewRomanPSMT-55"/>
       <use x="50" xlink:href="#TimesNewRomanPSMT-53"/>
      </g>
     </g>
    </g>
    <g id="xtick_5">
     <g id="line2d_5">
      <g>
       <use style="stroke:#000000;stroke-width:0.8;" x="334.31658" xlink:href="#mbb10668657" y="458.079"/>
      </g>
     </g>
     <g id="text_5">
      <!-- 100 -->
      <defs>
       <path d="M 11.71875 59.71875 
L 27.828125 67.578125 
L 29.4375 67.578125 
L 29.4375 11.671875 
Q 29.4375 6.109375 29.90625 4.734375 
Q 30.375 3.375 31.828125 2.640625 
Q 33.296875 1.90625 37.796875 1.8125 
L 37.796875 0 
L 12.890625 0 
L 12.890625 1.8125 
Q 17.578125 1.90625 18.9375 2.609375 
Q 20.3125 3.328125 20.84375 4.515625 
Q 21.390625 5.71875 21.390625 11.671875 
L 21.390625 47.40625 
Q 21.390625 54.640625 20.90625 56.6875 
Q 20.5625 58.25 19.65625 58.984375 
Q 18.75 59.71875 17.484375 59.71875 
Q 15.671875 59.71875 12.453125 58.203125 
z
" id="TimesNewRomanPSMT-49"/>
      </defs>
      <g transform="translate(325.31658 473.4115)scale(0.12 -0.12)">
       <use xlink:href="#TimesNewRomanPSMT-49"/>
       <use x="50" xlink:href="#TimesNewRomanPSMT-48"/>
       <use x="100" xlink:href="#TimesNewRomanPSMT-48"/>
      </g>
     </g>
    </g>
    <g id="xtick_6">
     <g id="line2d_6">
      <g>
       <use style="stroke:#000000;stroke-width:0.8;" x="401.487227" xlink:href="#mbb10668657" y="458.079"/>
      </g>
     </g>
     <g id="text_6">
      <!-- 125 -->
      <g transform="translate(392.487227 473.4115)scale(0.12 -0.12)">
       <use xlink:href="#TimesNewRomanPSMT-49"/>
       <use x="50" xlink:href="#TimesNewRomanPSMT-50"/>
       <use x="100" xlink:href="#TimesNewRomanPSMT-53"/>
      </g>
     </g>
    </g>
    <g id="xtick_7">
     <g id="line2d_7">
      <g>
       <use style="stroke:#000000;stroke-width:0.8;" x="468.657875" xlink:href="#mbb10668657" y="458.079"/>
      </g>
     </g>
     <g id="text_7">
      <!-- 150 -->
      <g transform="translate(459.657875 473.4115)scale(0.12 -0.12)">
       <use xlink:href="#TimesNewRomanPSMT-49"/>
       <use x="50" xlink:href="#TimesNewRomanPSMT-53"/>
       <use x="100" xlink:href="#TimesNewRomanPSMT-48"/>
      </g>
     </g>
    </g>
    <g id="xtick_8">
     <g id="line2d_8">
      <g>
       <use style="stroke:#000000;stroke-width:0.8;" x="535.828522" xlink:href="#mbb10668657" y="458.079"/>
      </g>
     </g>
     <g id="text_8">
      <!-- 175 -->
      <g transform="translate(526.828522 473.4115)scale(0.12 -0.12)">
       <use xlink:href="#TimesNewRomanPSMT-49"/>
       <use x="50" xlink:href="#TimesNewRomanPSMT-55"/>
       <use x="100" xlink:href="#TimesNewRomanPSMT-53"/>
      </g>
     </g>
    </g>
   </g>
   <g id="matplotlib.axis_2">
    <g id="ytick_1">
     <g id="line2d_9">
      <defs>
       <path d="M 0 0 
L -3.5 0 
" id="ma4539e9d88" style="stroke:#000000;stroke-width:0.8;"/>
      </defs>
      <g>
       <use style="stroke:#000000;stroke-width:0.8;" x="39.195625" xlink:href="#ma4539e9d88" y="438.311727"/>
      </g>
     </g>
     <g id="text_9">
      <!-- -1.00 -->
      <defs>
       <path d="M 4.046875 26.125 
L 29.296875 26.125 
L 29.296875 18.75 
L 4.046875 18.75 
z
" id="TimesNewRomanPSMT-45"/>
       <path d="M 12.5 9.46875 
Q 14.796875 9.46875 16.359375 7.875 
Q 17.921875 6.296875 17.921875 4.046875 
Q 17.921875 1.8125 16.328125 0.21875 
Q 14.75 -1.375 12.5 -1.375 
Q 10.25 -1.375 8.65625 0.21875 
Q 7.078125 1.8125 7.078125 4.046875 
Q 7.078125 6.34375 8.65625 7.90625 
Q 10.25 9.46875 12.5 9.46875 
z
" id="TimesNewRomanPSMT-46"/>
      </defs>
      <g transform="translate(7.2 442.477977)scale(0.12 -0.12)">
       <use xlink:href="#TimesNewRomanPSMT-45"/>
       <use x="33.300781" xlink:href="#TimesNewRomanPSMT-49"/>
       <use x="83.300781" xlink:href="#TimesNewRomanPSMT-46"/>
       <use x="108.300781" xlink:href="#TimesNewRomanPSMT-48"/>
       <use x="158.300781" xlink:href="#TimesNewRomanPSMT-48"/>
      </g>
     </g>
    </g>
    <g id="ytick_2">
     <g id="line2d_10">
      <g>
       <use style="stroke:#000000;stroke-width:0.8;" x="39.195625" xlink:href="#ma4539e9d88" y="388.893545"/>
      </g>
     </g>
     <g id="text_10">
      <!-- -0.75 -->
      <g transform="translate(7.2 393.059795)scale(0.12 -0.12)">
       <use xlink:href="#TimesNewRomanPSMT-45"/>
       <use x="33.300781" xlink:href="#TimesNewRomanPSMT-48"/>
       <use x="83.300781" xlink:href="#TimesNewRomanPSMT-46"/>
       <use x="108.300781" xlink:href="#TimesNewRomanPSMT-55"/>
       <use x="158.300781" xlink:href="#TimesNewRomanPSMT-53"/>
      </g>
     </g>
    </g>
    <g id="ytick_3">
     <g id="line2d_11">
      <g>
       <use style="stroke:#000000;stroke-width:0.8;" x="39.195625" xlink:href="#ma4539e9d88" y="339.475364"/>
      </g>
     </g>
     <g id="text_11">
      <!-- -0.50 -->
      <g transform="translate(7.2 343.641614)scale(0.12 -0.12)">
       <use xlink:href="#TimesNewRomanPSMT-45"/>
       <use x="33.300781" xlink:href="#TimesNewRomanPSMT-48"/>
       <use x="83.300781" xlink:href="#TimesNewRomanPSMT-46"/>
       <use x="108.300781" xlink:href="#TimesNewRomanPSMT-53"/>
       <use x="158.300781" xlink:href="#TimesNewRomanPSMT-48"/>
      </g>
     </g>
    </g>
    <g id="ytick_4">
     <g id="line2d_12">
      <g>
       <use style="stroke:#000000;stroke-width:0.8;" x="39.195625" xlink:href="#ma4539e9d88" y="290.057182"/>
      </g>
     </g>
     <g id="text_12">
      <!-- -0.25 -->
      <g transform="translate(7.2 294.223432)scale(0.12 -0.12)">
       <use xlink:href="#TimesNewRomanPSMT-45"/>
       <use x="33.300781" xlink:href="#TimesNewRomanPSMT-48"/>
       <use x="83.300781" xlink:href="#TimesNewRomanPSMT-46"/>
       <use x="108.300781" xlink:href="#TimesNewRomanPSMT-50"/>
       <use x="158.300781" xlink:href="#TimesNewRomanPSMT-53"/>
      </g>
     </g>
    </g>
    <g id="ytick_5">
     <g id="line2d_13">
      <g>
       <use style="stroke:#000000;stroke-width:0.8;" x="39.195625" xlink:href="#ma4539e9d88" y="240.639"/>
      </g>
     </g>
     <g id="text_13">
      <!-- 0.00 -->
      <g transform="translate(11.195625 244.80525)scale(0.12 -0.12)">
       <use xlink:href="#TimesNewRomanPSMT-48"/>
       <use x="50" xlink:href="#TimesNewRomanPSMT-46"/>
       <use x="75" xlink:href="#TimesNewRomanPSMT-48"/>
       <use x="125" xlink:href="#TimesNewRomanPSMT-48"/>
      </g>
     </g>
    </g>
    <g id="ytick_6">
     <g id="line2d_14">
      <g>
       <use style="stroke:#000000;stroke-width:0.8;" x="39.195625" xlink:href="#ma4539e9d88" y="191.220818"/>
      </g>
     </g>
     <g id="text_14">
      <!-- 0.25 -->
      <g transform="translate(11.195625 195.387068)scale(0.12 -0.12)">
       <use xlink:href="#TimesNewRomanPSMT-48"/>
       <use x="50" xlink:href="#TimesNewRomanPSMT-46"/>
       <use x="75" xlink:href="#TimesNewRomanPSMT-50"/>
       <use x="125" xlink:href="#TimesNewRomanPSMT-53"/>
      </g>
     </g>
    </g>
    <g id="ytick_7">
     <g id="line2d_15">
      <g>
       <use style="stroke:#000000;stroke-width:0.8;" x="39.195625" xlink:href="#ma4539e9d88" y="141.802636"/>
      </g>
     </g>
     <g id="text_15">
      <!-- 0.50 -->
      <g transform="translate(11.195625 145.968886)scale(0.12 -0.12)">
       <use xlink:href="#TimesNewRomanPSMT-48"/>
       <use x="50" xlink:href="#TimesNewRomanPSMT-46"/>
       <use x="75" xlink:href="#TimesNewRomanPSMT-53"/>
       <use x="125" xlink:href="#TimesNewRomanPSMT-48"/>
      </g>
     </g>
    </g>
    <g id="ytick_8">
     <g id="line2d_16">
      <g>
       <use style="stroke:#000000;stroke-width:0.8;" x="39.195625" xlink:href="#ma4539e9d88" y="92.384455"/>
      </g>
     </g>
     <g id="text_16">
      <!-- 0.75 -->
      <g transform="translate(11.195625 96.550705)scale(0.12 -0.12)">
       <use xlink:href="#TimesNewRomanPSMT-48"/>
       <use x="50" xlink:href="#TimesNewRomanPSMT-46"/>
       <use x="75" xlink:href="#TimesNewRomanPSMT-55"/>
       <use x="125" xlink:href="#TimesNewRomanPSMT-53"/>
      </g>
     </g>
    </g>
    <g id="ytick_9">
     <g id="line2d_17">
      <g>
       <use style="stroke:#000000;stroke-width:0.8;" x="39.195625" xlink:href="#ma4539e9d88" y="42.966273"/>
      </g>
     </g>
     <g id="text_17">
      <!-- 1.00 -->
      <g transform="translate(11.195625 47.132523)scale(0.12 -0.12)">
       <use xlink:href="#TimesNewRomanPSMT-49"/>
       <use x="50" xlink:href="#TimesNewRomanPSMT-46"/>
       <use x="75" xlink:href="#TimesNewRomanPSMT-48"/>
       <use x="125" xlink:href="#TimesNewRomanPSMT-48"/>
      </g>
     </g>
    </g>
   </g>
   <g id="patch_192">
    <path d="M 39.195625 458.079 
L 39.195625 23.199 
" style="fill:none;stroke:#000000;stroke-linecap:square;stroke-linejoin:miter;stroke-width:0.8;"/>
   </g>
   <g id="patch_193">
    <path d="M 597.195625 458.079 
L 597.195625 23.199 
" style="fill:none;stroke:#000000;stroke-linecap:square;stroke-linejoin:miter;stroke-width:0.8;"/>
   </g>
   <g id="patch_194">
    <path d="M 39.195625 458.079 
L 597.195625 458.079 
" style="fill:none;stroke:#000000;stroke-linecap:square;stroke-linejoin:miter;stroke-width:0.8;"/>
   </g>
   <g id="patch_195">
    <path d="M 39.195625 23.199 
L 597.195625 23.199 
" style="fill:none;stroke:#000000;stroke-linecap:square;stroke-linejoin:miter;stroke-width:0.8;"/>
   </g>
   <g id="text_18">
    <!-- ExtraTrees sample predict score -->
    <defs>
     <path d="M 20.90625 62.59375 
L 20.90625 36.421875 
L 35.453125 36.421875 
Q 41.109375 36.421875 43.015625 38.140625 
Q 45.5625 40.375 45.84375 46.046875 
L 47.65625 46.046875 
L 47.65625 23 
L 45.84375 23 
Q 45.171875 27.828125 44.484375 29.203125 
Q 43.609375 30.90625 41.59375 31.875 
Q 39.59375 32.859375 35.453125 32.859375 
L 20.90625 32.859375 
L 20.90625 11.03125 
Q 20.90625 6.640625 21.296875 5.6875 
Q 21.6875 4.734375 22.65625 4.171875 
Q 23.640625 3.609375 26.375 3.609375 
L 37.59375 3.609375 
Q 43.21875 3.609375 45.75 4.390625 
Q 48.296875 5.171875 50.640625 7.46875 
Q 53.65625 10.5 56.84375 16.609375 
L 58.796875 16.609375 
L 53.078125 0 
L 2.046875 0 
L 2.046875 1.8125 
L 4.390625 1.8125 
Q 6.734375 1.8125 8.84375 2.9375 
Q 10.40625 3.71875 10.96875 5.28125 
Q 11.53125 6.84375 11.53125 11.671875 
L 11.53125 54.6875 
Q 11.53125 60.984375 10.25 62.453125 
Q 8.5 64.40625 4.390625 64.40625 
L 2.046875 64.40625 
L 2.046875 66.21875 
L 53.078125 66.21875 
L 53.8125 51.703125 
L 51.90625 51.703125 
Q 50.875 56.9375 49.625 58.890625 
Q 48.390625 60.84375 45.953125 61.859375 
Q 44 62.59375 39.0625 62.59375 
z
" id="TimesNewRomanPSMT-69"/>
     <path d="M 1.3125 44.734375 
L 22.359375 44.734375 
L 22.359375 42.921875 
Q 20.359375 42.921875 19.546875 42.234375 
Q 18.75 41.546875 18.75 40.4375 
Q 18.75 39.265625 20.453125 36.8125 
Q 21 36.03125 22.078125 34.375 
L 25.25 29.296875 
L 28.90625 34.375 
Q 32.421875 39.203125 32.421875 40.484375 
Q 32.421875 41.5 31.59375 42.203125 
Q 30.765625 42.921875 28.90625 42.921875 
L 28.90625 44.734375 
L 44.046875 44.734375 
L 44.046875 42.921875 
Q 41.65625 42.78125 39.890625 41.609375 
Q 37.5 39.9375 33.34375 34.375 
L 27.25 26.21875 
L 38.375 10.203125 
Q 42.484375 4.296875 44.234375 3.09375 
Q 46 1.90625 48.78125 1.765625 
L 48.78125 0 
L 27.6875 0 
L 27.6875 1.765625 
Q 29.890625 1.765625 31.109375 2.734375 
Q 32.03125 3.421875 32.03125 4.546875 
Q 32.03125 5.671875 28.90625 10.203125 
L 22.359375 19.78125 
L 15.1875 10.203125 
Q 11.859375 5.765625 11.859375 4.9375 
Q 11.859375 3.765625 12.953125 2.8125 
Q 14.0625 1.859375 16.265625 1.765625 
L 16.265625 0 
L 1.65625 0 
L 1.65625 1.765625 
Q 3.421875 2 4.734375 2.984375 
Q 6.59375 4.390625 10.984375 10.203125 
L 20.359375 22.65625 
L 11.859375 34.96875 
Q 8.25 40.234375 6.265625 41.578125 
Q 4.296875 42.921875 1.3125 42.921875 
z
" id="TimesNewRomanPSMT-120"/>
     <path d="M 16.109375 59.421875 
L 16.109375 44.734375 
L 26.5625 44.734375 
L 26.5625 41.3125 
L 16.109375 41.3125 
L 16.109375 12.3125 
Q 16.109375 7.953125 17.359375 6.4375 
Q 18.609375 4.9375 20.5625 4.9375 
Q 22.171875 4.9375 23.6875 5.9375 
Q 25.203125 6.9375 26.03125 8.890625 
L 27.9375 8.890625 
Q 26.21875 4.109375 23.09375 1.6875 
Q 19.96875 -0.734375 16.65625 -0.734375 
Q 14.40625 -0.734375 12.25 0.515625 
Q 10.109375 1.765625 9.078125 4.078125 
Q 8.0625 6.390625 8.0625 11.234375 
L 8.0625 41.3125 
L 0.984375 41.3125 
L 0.984375 42.921875 
Q 3.65625 44 6.46875 46.5625 
Q 9.28125 49.125 11.46875 52.640625 
Q 12.59375 54.5 14.59375 59.421875 
z
" id="TimesNewRomanPSMT-116"/>
     <path d="M 16.21875 46.046875 
L 16.21875 35.984375 
Q 21.828125 46.046875 27.734375 46.046875 
Q 30.421875 46.046875 32.171875 44.40625 
Q 33.9375 42.78125 33.9375 40.625 
Q 33.9375 38.71875 32.65625 37.390625 
Q 31.390625 36.078125 29.640625 36.078125 
Q 27.9375 36.078125 25.8125 37.765625 
Q 23.6875 39.453125 22.65625 39.453125 
Q 21.78125 39.453125 20.75 38.484375 
Q 18.5625 36.46875 16.21875 31.890625 
L 16.21875 10.453125 
Q 16.21875 6.734375 17.140625 4.828125 
Q 17.78125 3.515625 19.390625 2.640625 
Q 21 1.765625 24.03125 1.765625 
L 24.03125 0 
L 1.125 0 
L 1.125 1.765625 
Q 4.546875 1.765625 6.203125 2.828125 
Q 7.421875 3.609375 7.90625 5.328125 
Q 8.15625 6.15625 8.15625 10.0625 
L 8.15625 27.390625 
Q 8.15625 35.203125 7.828125 36.6875 
Q 7.515625 38.1875 6.65625 38.859375 
Q 5.8125 39.546875 4.546875 39.546875 
Q 3.03125 39.546875 1.125 38.8125 
L 0.640625 40.578125 
L 14.15625 46.046875 
z
" id="TimesNewRomanPSMT-114"/>
     <path d="M 28.46875 6.453125 
Q 21.578125 1.125 19.828125 0.296875 
Q 17.1875 -0.921875 14.203125 -0.921875 
Q 9.578125 -0.921875 6.5625 2.25 
Q 3.5625 5.421875 3.5625 10.59375 
Q 3.5625 13.875 5.03125 16.265625 
Q 7.03125 19.578125 11.984375 22.5 
Q 16.9375 25.4375 28.46875 29.640625 
L 28.46875 31.390625 
Q 28.46875 38.09375 26.34375 40.578125 
Q 24.21875 43.0625 20.171875 43.0625 
Q 17.09375 43.0625 15.28125 41.40625 
Q 13.421875 39.75 13.421875 37.59375 
L 13.53125 34.765625 
Q 13.53125 32.515625 12.375 31.296875 
Q 11.234375 30.078125 9.375 30.078125 
Q 7.5625 30.078125 6.421875 31.34375 
Q 5.28125 32.625 5.28125 34.8125 
Q 5.28125 39.015625 9.578125 42.53125 
Q 13.875 46.046875 21.625 46.046875 
Q 27.59375 46.046875 31.390625 44.046875 
Q 34.28125 42.53125 35.640625 39.3125 
Q 36.53125 37.203125 36.53125 30.71875 
L 36.53125 15.53125 
Q 36.53125 9.125 36.765625 7.6875 
Q 37.015625 6.25 37.578125 5.765625 
Q 38.140625 5.28125 38.875 5.28125 
Q 39.65625 5.28125 40.234375 5.609375 
Q 41.265625 6.25 44.1875 9.1875 
L 44.1875 6.453125 
Q 38.71875 -0.875 33.734375 -0.875 
Q 31.34375 -0.875 29.921875 0.78125 
Q 28.515625 2.4375 28.46875 6.453125 
z
M 28.46875 9.625 
L 28.46875 26.65625 
Q 21.09375 23.734375 18.953125 22.515625 
Q 15.09375 20.359375 13.421875 18.015625 
Q 11.765625 15.671875 11.765625 12.890625 
Q 11.765625 9.375 13.859375 7.046875 
Q 15.96875 4.734375 18.703125 4.734375 
Q 22.40625 4.734375 28.46875 9.625 
z
" id="TimesNewRomanPSMT-97"/>
     <path d="M 57.859375 66.21875 
L 58.59375 50.6875 
L 56.734375 50.6875 
Q 56.203125 54.78125 55.28125 56.546875 
Q 53.765625 59.375 51.25 60.71875 
Q 48.734375 62.0625 44.625 62.0625 
L 35.296875 62.0625 
L 35.296875 11.46875 
Q 35.296875 5.375 36.625 3.859375 
Q 38.484375 1.8125 42.328125 1.8125 
L 44.625 1.8125 
L 44.625 0 
L 16.546875 0 
L 16.546875 1.8125 
L 18.890625 1.8125 
Q 23.09375 1.8125 24.859375 4.34375 
Q 25.921875 5.90625 25.921875 11.46875 
L 25.921875 62.0625 
L 17.96875 62.0625 
Q 13.328125 62.0625 11.375 61.375 
Q 8.84375 60.453125 7.03125 57.8125 
Q 5.21875 55.171875 4.890625 50.6875 
L 3.03125 50.6875 
L 3.8125 66.21875 
z
" id="TimesNewRomanPSMT-84"/>
     <path d="M 10.640625 27.875 
Q 10.59375 17.921875 15.484375 12.25 
Q 20.359375 6.59375 26.953125 6.59375 
Q 31.34375 6.59375 34.59375 9 
Q 37.84375 11.421875 40.046875 17.28125 
L 41.546875 16.3125 
Q 40.53125 9.625 35.59375 4.125 
Q 30.671875 -1.375 23.25 -1.375 
Q 15.1875 -1.375 9.453125 4.90625 
Q 3.71875 11.1875 3.71875 21.78125 
Q 3.71875 33.25 9.59375 39.671875 
Q 15.484375 46.09375 24.359375 46.09375 
Q 31.890625 46.09375 36.71875 41.140625 
Q 41.546875 36.1875 41.546875 27.875 
z
M 10.640625 30.71875 
L 31.34375 30.71875 
Q 31.109375 35.015625 30.328125 36.765625 
Q 29.109375 39.5 26.6875 41.0625 
Q 24.265625 42.625 21.625 42.625 
Q 17.578125 42.625 14.375 39.46875 
Q 11.1875 36.328125 10.640625 30.71875 
z
" id="TimesNewRomanPSMT-101"/>
     <path d="M 32.03125 46.046875 
L 32.03125 30.8125 
L 30.421875 30.8125 
Q 28.5625 37.984375 25.65625 40.578125 
Q 22.75 43.171875 18.265625 43.171875 
Q 14.84375 43.171875 12.734375 41.359375 
Q 10.640625 39.546875 10.640625 37.359375 
Q 10.640625 34.625 12.203125 32.671875 
Q 13.71875 30.671875 18.359375 28.421875 
L 25.484375 24.953125 
Q 35.40625 20.125 35.40625 12.203125 
Q 35.40625 6.109375 30.78125 2.359375 
Q 26.171875 -1.375 20.453125 -1.375 
Q 16.359375 -1.375 11.078125 0.09375 
Q 9.46875 0.59375 8.453125 0.59375 
Q 7.328125 0.59375 6.6875 -0.6875 
L 5.078125 -0.6875 
L 5.078125 15.28125 
L 6.6875 15.28125 
Q 8.0625 8.453125 11.90625 4.984375 
Q 15.765625 1.515625 20.5625 1.515625 
Q 23.921875 1.515625 26.046875 3.484375 
Q 28.171875 5.46875 28.171875 8.25 
Q 28.171875 11.625 25.796875 13.921875 
Q 23.4375 16.21875 16.359375 19.734375 
Q 9.28125 23.25 7.078125 26.078125 
Q 4.890625 28.859375 4.890625 33.109375 
Q 4.890625 38.625 8.671875 42.328125 
Q 12.453125 46.046875 18.453125 46.046875 
Q 21.09375 46.046875 24.859375 44.921875 
Q 27.34375 44.1875 28.171875 44.1875 
Q 28.953125 44.1875 29.390625 44.53125 
Q 29.828125 44.875 30.421875 46.046875 
z
" id="TimesNewRomanPSMT-115"/>
     <path id="TimesNewRomanPSMT-32"/>
     <path d="M 16.40625 36.53125 
Q 21.296875 41.40625 22.171875 42.140625 
Q 24.359375 44 26.890625 45.015625 
Q 29.4375 46.046875 31.9375 46.046875 
Q 36.140625 46.046875 39.15625 43.59375 
Q 42.1875 41.15625 43.21875 36.53125 
Q 48.25 42.390625 51.703125 44.21875 
Q 55.171875 46.046875 58.84375 46.046875 
Q 62.40625 46.046875 65.15625 44.21875 
Q 67.921875 42.390625 69.53125 38.234375 
Q 70.609375 35.40625 70.609375 29.34375 
L 70.609375 10.109375 
Q 70.609375 5.90625 71.234375 4.34375 
Q 71.734375 3.265625 73.046875 2.515625 
Q 74.359375 1.765625 77.34375 1.765625 
L 77.34375 0 
L 55.28125 0 
L 55.28125 1.765625 
L 56.203125 1.765625 
Q 59.078125 1.765625 60.6875 2.875 
Q 61.8125 3.65625 62.3125 5.375 
Q 62.5 6.203125 62.5 10.109375 
L 62.5 29.34375 
Q 62.5 34.8125 61.1875 37.0625 
Q 59.28125 40.1875 55.078125 40.1875 
Q 52.484375 40.1875 49.875 38.890625 
Q 47.265625 37.59375 43.5625 34.078125 
L 43.453125 33.546875 
L 43.5625 31.453125 
L 43.5625 10.109375 
Q 43.5625 5.515625 44.0625 4.390625 
Q 44.578125 3.265625 45.984375 2.515625 
Q 47.40625 1.765625 50.828125 1.765625 
L 50.828125 0 
L 28.21875 0 
L 28.21875 1.765625 
Q 31.9375 1.765625 33.328125 2.640625 
Q 34.71875 3.515625 35.25 5.28125 
Q 35.5 6.109375 35.5 10.109375 
L 35.5 29.34375 
Q 35.5 34.8125 33.890625 37.203125 
Q 31.734375 40.328125 27.875 40.328125 
Q 25.25 40.328125 22.65625 38.921875 
Q 18.609375 36.765625 16.40625 34.078125 
L 16.40625 10.109375 
Q 16.40625 5.71875 17.015625 4.390625 
Q 17.625 3.078125 18.8125 2.421875 
Q 20.015625 1.765625 23.6875 1.765625 
L 23.6875 0 
L 1.5625 0 
L 1.5625 1.765625 
Q 4.640625 1.765625 5.859375 2.421875 
Q 7.078125 3.078125 7.703125 4.515625 
Q 8.34375 5.953125 8.34375 10.109375 
L 8.34375 27.203125 
Q 8.34375 34.578125 7.90625 36.71875 
Q 7.5625 38.328125 6.828125 38.9375 
Q 6.109375 39.546875 4.828125 39.546875 
Q 3.46875 39.546875 1.5625 38.8125 
L 0.828125 40.578125 
L 14.3125 46.046875 
L 16.40625 46.046875 
z
" id="TimesNewRomanPSMT-109"/>
     <path d="M -0.09375 40.28125 
L 13.671875 45.84375 
L 15.53125 45.84375 
L 15.53125 35.40625 
Q 19 41.3125 22.484375 43.671875 
Q 25.984375 46.046875 29.828125 46.046875 
Q 36.578125 46.046875 41.0625 40.765625 
Q 46.578125 34.328125 46.578125 23.96875 
Q 46.578125 12.40625 39.9375 4.828125 
Q 34.46875 -1.375 26.171875 -1.375 
Q 22.5625 -1.375 19.921875 -0.34375 
Q 17.96875 0.390625 15.53125 2.59375 
L 15.53125 -11.03125 
Q 15.53125 -15.625 16.09375 -16.859375 
Q 16.65625 -18.109375 18.046875 -18.84375 
Q 19.4375 -19.578125 23.09375 -19.578125 
L 23.09375 -21.390625 
L -0.34375 -21.390625 
L -0.34375 -19.578125 
L 0.875 -19.578125 
Q 3.5625 -19.625 5.46875 -18.5625 
Q 6.390625 -18.015625 6.90625 -16.8125 
Q 7.421875 -15.625 7.421875 -10.75 
L 7.421875 31.546875 
Q 7.421875 35.890625 7.03125 37.0625 
Q 6.640625 38.234375 5.78125 38.8125 
Q 4.9375 39.40625 3.46875 39.40625 
Q 2.296875 39.40625 0.484375 38.71875 
z
M 15.53125 32.515625 
L 15.53125 15.828125 
Q 15.53125 10.40625 15.96875 8.6875 
Q 16.65625 5.859375 19.3125 3.703125 
Q 21.96875 1.5625 26.03125 1.5625 
Q 30.90625 1.5625 33.9375 5.375 
Q 37.890625 10.359375 37.890625 19.390625 
Q 37.890625 29.640625 33.40625 35.15625 
Q 30.28125 38.96875 25.984375 38.96875 
Q 23.640625 38.96875 21.34375 37.796875 
Q 19.578125 36.921875 15.53125 32.515625 
z
" id="TimesNewRomanPSMT-112"/>
     <path d="M 18.5 69.4375 
L 18.5 10.109375 
Q 18.5 5.90625 19.109375 4.53125 
Q 19.734375 3.171875 21 2.46875 
Q 22.265625 1.765625 25.734375 1.765625 
L 25.734375 0 
L 3.8125 0 
L 3.8125 1.765625 
Q 6.890625 1.765625 8 2.390625 
Q 9.125 3.03125 9.765625 4.484375 
Q 10.40625 5.953125 10.40625 10.109375 
L 10.40625 50.734375 
Q 10.40625 58.296875 10.0625 60.03125 
Q 9.71875 61.765625 8.953125 62.390625 
Q 8.203125 63.03125 7.03125 63.03125 
Q 5.765625 63.03125 3.8125 62.25 
L 2.984375 63.96875 
L 16.3125 69.4375 
z
" id="TimesNewRomanPSMT-108"/>
     <path d="M 34.71875 5.03125 
Q 31.453125 1.609375 28.328125 0.109375 
Q 25.203125 -1.375 21.578125 -1.375 
Q 14.265625 -1.375 8.796875 4.75 
Q 3.328125 10.890625 3.328125 20.515625 
Q 3.328125 30.125 9.375 38.109375 
Q 15.4375 46.09375 24.953125 46.09375 
Q 30.859375 46.09375 34.71875 42.328125 
L 34.71875 50.59375 
Q 34.71875 58.25 34.34375 60 
Q 33.984375 61.765625 33.203125 62.390625 
Q 32.421875 63.03125 31.25 63.03125 
Q 29.984375 63.03125 27.875 62.25 
L 27.25 63.96875 
L 40.578125 69.4375 
L 42.78125 69.4375 
L 42.78125 17.71875 
Q 42.78125 9.859375 43.140625 8.125 
Q 43.5 6.390625 44.3125 5.703125 
Q 45.125 5.03125 46.1875 5.03125 
Q 47.515625 5.03125 49.703125 5.859375 
L 50.25 4.15625 
L 36.96875 -1.375 
L 34.71875 -1.375 
z
M 34.71875 8.453125 
L 34.71875 31.5 
Q 34.421875 34.8125 32.953125 37.546875 
Q 31.5 40.28125 29.078125 41.671875 
Q 26.65625 43.0625 24.359375 43.0625 
Q 20.0625 43.0625 16.703125 39.203125 
Q 12.25 34.125 12.25 24.359375 
Q 12.25 14.5 16.546875 9.25 
Q 20.84375 4 26.125 4 
Q 30.5625 4 34.71875 8.453125 
z
" id="TimesNewRomanPSMT-100"/>
     <path d="M 14.5 69.4375 
Q 16.546875 69.4375 17.984375 67.984375 
Q 19.4375 66.546875 19.4375 64.5 
Q 19.4375 62.453125 17.984375 60.984375 
Q 16.546875 59.515625 14.5 59.515625 
Q 12.453125 59.515625 10.984375 60.984375 
Q 9.515625 62.453125 9.515625 64.5 
Q 9.515625 66.546875 10.953125 67.984375 
Q 12.40625 69.4375 14.5 69.4375 
z
M 18.5625 46.046875 
L 18.5625 10.109375 
Q 18.5625 5.90625 19.171875 4.515625 
Q 19.78125 3.125 20.96875 2.4375 
Q 22.171875 1.765625 25.34375 1.765625 
L 25.34375 0 
L 3.609375 0 
L 3.609375 1.765625 
Q 6.890625 1.765625 8 2.390625 
Q 9.125 3.03125 9.78125 4.484375 
Q 10.453125 5.953125 10.453125 10.109375 
L 10.453125 27.34375 
Q 10.453125 34.625 10.015625 36.765625 
Q 9.671875 38.328125 8.9375 38.9375 
Q 8.203125 39.546875 6.9375 39.546875 
Q 5.5625 39.546875 3.609375 38.8125 
L 2.9375 40.578125 
L 16.40625 46.046875 
z
" id="TimesNewRomanPSMT-105"/>
     <path d="M 41.109375 17 
Q 39.3125 8.15625 34.03125 3.390625 
Q 28.765625 -1.375 22.359375 -1.375 
Q 14.75 -1.375 9.078125 5.015625 
Q 3.421875 11.421875 3.421875 22.3125 
Q 3.421875 32.859375 9.6875 39.453125 
Q 15.96875 46.046875 24.75 46.046875 
Q 31.34375 46.046875 35.59375 42.546875 
Q 39.84375 39.0625 39.84375 35.296875 
Q 39.84375 33.453125 38.640625 32.296875 
Q 37.453125 31.15625 35.296875 31.15625 
Q 32.421875 31.15625 30.953125 33.015625 
Q 30.125 34.03125 29.859375 36.90625 
Q 29.59375 39.796875 27.875 41.3125 
Q 26.171875 42.78125 23.140625 42.78125 
Q 18.265625 42.78125 15.28125 39.15625 
Q 11.328125 34.375 11.328125 26.515625 
Q 11.328125 18.5 15.25 12.375 
Q 19.1875 6.25 25.875 6.25 
Q 30.671875 6.25 34.46875 9.515625 
Q 37.15625 11.765625 39.703125 17.671875 
z
" id="TimesNewRomanPSMT-99"/>
     <path d="M 25 46.046875 
Q 35.15625 46.046875 41.3125 38.328125 
Q 46.53125 31.734375 46.53125 23.1875 
Q 46.53125 17.1875 43.640625 11.03125 
Q 40.765625 4.890625 35.71875 1.75 
Q 30.671875 -1.375 24.46875 -1.375 
Q 14.359375 -1.375 8.40625 6.6875 
Q 3.375 13.484375 3.375 21.921875 
Q 3.375 28.078125 6.421875 34.15625 
Q 9.46875 40.234375 14.453125 43.140625 
Q 19.4375 46.046875 25 46.046875 
z
M 23.484375 42.875 
Q 20.90625 42.875 18.28125 41.328125 
Q 15.671875 39.796875 14.0625 35.9375 
Q 12.453125 32.078125 12.453125 26.03125 
Q 12.453125 16.265625 16.328125 9.171875 
Q 20.21875 2.09375 26.5625 2.09375 
Q 31.296875 2.09375 34.375 6 
Q 37.453125 9.90625 37.453125 19.4375 
Q 37.453125 31.34375 32.328125 38.1875 
Q 28.859375 42.875 23.484375 42.875 
z
" id="TimesNewRomanPSMT-111"/>
    </defs>
    <g transform="translate(225.889375 17.199)scale(0.144 -0.144)">
     <use xlink:href="#TimesNewRomanPSMT-69"/>
     <use x="61.083984" xlink:href="#TimesNewRomanPSMT-120"/>
     <use x="111.083984" xlink:href="#TimesNewRomanPSMT-116"/>
     <use x="138.867188" xlink:href="#TimesNewRomanPSMT-114"/>
     <use x="172.167969" xlink:href="#TimesNewRomanPSMT-97"/>
     <use x="216.552734" xlink:href="#TimesNewRomanPSMT-84"/>
     <use x="274.136719" xlink:href="#TimesNewRomanPSMT-114"/>
     <use x="307.4375" xlink:href="#TimesNewRomanPSMT-101"/>
     <use x="351.822266" xlink:href="#TimesNewRomanPSMT-101"/>
     <use x="396.207031" xlink:href="#TimesNewRomanPSMT-115"/>
     <use x="435.123047" xlink:href="#TimesNewRomanPSMT-32"/>
     <use x="460.123047" xlink:href="#TimesNewRomanPSMT-115"/>
     <use x="499.039062" xlink:href="#TimesNewRomanPSMT-97"/>
     <use x="543.423828" xlink:href="#TimesNewRomanPSMT-109"/>
     <use x="621.207031" xlink:href="#TimesNewRomanPSMT-112"/>
     <use x="671.207031" xlink:href="#TimesNewRomanPSMT-108"/>
     <use x="698.990234" xlink:href="#TimesNewRomanPSMT-101"/>
     <use x="743.375" xlink:href="#TimesNewRomanPSMT-32"/>
     <use x="768.375" xlink:href="#TimesNewRomanPSMT-112"/>
     <use x="818.375" xlink:href="#TimesNewRomanPSMT-114"/>
     <use x="851.675781" xlink:href="#TimesNewRomanPSMT-101"/>
     <use x="896.060547" xlink:href="#TimesNewRomanPSMT-100"/>
     <use x="946.060547" xlink:href="#TimesNewRomanPSMT-105"/>
     <use x="973.84375" xlink:href="#TimesNewRomanPSMT-99"/>
     <use x="1018.228516" xlink:href="#TimesNewRomanPSMT-116"/>
     <use x="1046.011719" xlink:href="#TimesNewRomanPSMT-32"/>
     <use x="1071.011719" xlink:href="#TimesNewRomanPSMT-115"/>
     <use x="1109.927734" xlink:href="#TimesNewRomanPSMT-99"/>
     <use x="1154.3125" xlink:href="#TimesNewRomanPSMT-111"/>
     <use x="1204.3125" xlink:href="#TimesNewRomanPSMT-114"/>
     <use x="1237.613281" xlink:href="#TimesNewRomanPSMT-101"/>
    </g>
   </g>
   <g id="legend_1">
    <g id="patch_196">
     <path d="M 514.3075 452.079 
L 588.795625 452.079 
Q 591.195625 452.079 591.195625 449.679 
L 591.195625 416.94525 
Q 591.195625 414.54525 588.795625 414.54525 
L 514.3075 414.54525 
Q 511.9075 414.54525 511.9075 416.94525 
L 511.9075 449.679 
Q 511.9075 452.079 514.3075 452.079 
z
" style="fill:#ffffff;opacity:0.8;stroke:#cccccc;stroke-linejoin:miter;"/>
    </g>
    <g id="patch_197">
     <path d="M 516.7075 427.74525 
L 540.7075 427.74525 
L 540.7075 419.34525 
L 516.7075 419.34525 
z
" style="fill:#1f77b4;"/>
    </g>
    <g id="text_19">
     <!-- label=0 -->
     <defs>
      <path d="M 15.375 37.015625 
Q 21.875 46.046875 29.390625 46.046875 
Q 36.28125 46.046875 41.40625 40.15625 
Q 46.53125 34.28125 46.53125 24.078125 
Q 46.53125 12.15625 38.625 4.890625 
Q 31.84375 -1.375 23.484375 -1.375 
Q 19.578125 -1.375 15.546875 0.046875 
Q 11.53125 1.46875 7.328125 4.296875 
L 7.328125 50.640625 
Q 7.328125 58.25 6.953125 60 
Q 6.59375 61.765625 5.8125 62.390625 
Q 5.03125 63.03125 3.859375 63.03125 
Q 2.484375 63.03125 0.4375 62.25 
L -0.25 63.96875 
L 13.1875 69.4375 
L 15.375 69.4375 
z
M 15.375 33.890625 
L 15.375 7.125 
Q 17.875 4.6875 20.53125 3.4375 
Q 23.1875 2.203125 25.984375 2.203125 
Q 30.421875 2.203125 34.25 7.078125 
Q 38.09375 11.96875 38.09375 21.296875 
Q 38.09375 29.890625 34.25 34.5 
Q 30.421875 39.109375 25.53125 39.109375 
Q 22.953125 39.109375 20.359375 37.796875 
Q 18.40625 36.8125 15.375 33.890625 
z
" id="TimesNewRomanPSMT-98"/>
      <path d="M 1.8125 43.109375 
L 54.5 43.109375 
L 54.5 39.109375 
L 1.8125 39.109375 
z
M 1.8125 27.203125 
L 54.5 27.203125 
L 54.5 23.1875 
L 1.8125 23.1875 
z
" id="TimesNewRomanPSMT-61"/>
     </defs>
     <g transform="translate(550.3075 427.74525)scale(0.12 -0.12)">
      <use xlink:href="#TimesNewRomanPSMT-108"/>
      <use x="27.783203" xlink:href="#TimesNewRomanPSMT-97"/>
      <use x="72.167969" xlink:href="#TimesNewRomanPSMT-98"/>
      <use x="122.167969" xlink:href="#TimesNewRomanPSMT-101"/>
      <use x="166.552734" xlink:href="#TimesNewRomanPSMT-108"/>
      <use x="194.335938" xlink:href="#TimesNewRomanPSMT-61"/>
      <use x="250.732422" xlink:href="#TimesNewRomanPSMT-48"/>
     </g>
    </g>
    <g id="patch_198">
     <path d="M 516.7075 444.712125 
L 540.7075 444.712125 
L 540.7075 436.312125 
L 516.7075 436.312125 
z
" style="fill:#ff7f0e;"/>
    </g>
    <g id="text_20">
     <!-- label=1 -->
     <g transform="translate(550.3075 444.712125)scale(0.12 -0.12)">
      <use xlink:href="#TimesNewRomanPSMT-108"/>
      <use x="27.783203" xlink:href="#TimesNewRomanPSMT-97"/>
      <use x="72.167969" xlink:href="#TimesNewRomanPSMT-98"/>
      <use x="122.167969" xlink:href="#TimesNewRomanPSMT-101"/>
      <use x="166.552734" xlink:href="#TimesNewRomanPSMT-108"/>
      <use x="194.335938" xlink:href="#TimesNewRomanPSMT-61"/>
      <use x="250.732422" xlink:href="#TimesNewRomanPSMT-49"/>
     </g>
    </g>
   </g>
  </g>
 </g>
 <defs>
  <clipPath id="p2ea1f9492d">
   <rect height="434.88" width="558" x="39.195625" y="23.199"/>
  </clipPath>
 </defs>
</svg>
